<mxfile host="app.diagrams.net" agent="Mozilla/5.0 (Windows NT 10.0; Win64; x64) AppleWebKit/537.36 (KHTML, like Gecko) Chrome/132.0.0.0 Safari/537.36" version="26.0.6">
  <diagram name="Page-1" id="aRNU1eJvYMI7Fc-nETrC">
    <mxGraphModel dx="1434" dy="746" grid="1" gridSize="10" guides="1" tooltips="1" connect="1" arrows="1" fold="1" page="1" pageScale="1" pageWidth="850" pageHeight="1100" math="0" shadow="0">
      <root>
        <mxCell id="0" />
        <mxCell id="1" parent="0" />
        <mxCell id="mfLmD8ytuKlTda2Trryr-16" value="" style="rounded=0;whiteSpace=wrap;html=1;fillColor=#d5e8d4;strokeColor=#82b366;" parent="1" vertex="1">
          <mxGeometry x="189" y="690" width="470" height="79" as="geometry" />
        </mxCell>
        <mxCell id="mfLmD8ytuKlTda2Trryr-9" value="" style="rounded=0;whiteSpace=wrap;html=1;fillColor=#f8cecc;strokeColor=#b85450;" parent="1" vertex="1">
          <mxGeometry x="145" y="180" width="560" height="370" as="geometry" />
        </mxCell>
        <mxCell id="mfLmD8ytuKlTda2Trryr-1" value="" style="rounded=0;whiteSpace=wrap;html=1;fillColor=#dae8fc;strokeColor=#6c8ebf;" parent="1" vertex="1">
          <mxGeometry x="189" y="611" width="470" height="79" as="geometry" />
        </mxCell>
        <mxCell id="YTU4O0EHwScsqyQz_TsI-1" value="CCI Network" style="ellipse;shape=cloud;whiteSpace=wrap;html=1;" parent="1" vertex="1">
          <mxGeometry x="364" y="10" width="120" height="80" as="geometry" />
        </mxCell>
        <mxCell id="YTU4O0EHwScsqyQz_TsI-2" value="Nginx&lt;br&gt;&lt;div&gt;Docker Swarm&lt;/div&gt;" style="rounded=0;whiteSpace=wrap;html=1;" parent="1" vertex="1">
          <mxGeometry x="359" y="190" width="120" height="60" as="geometry" />
        </mxCell>
        <mxCell id="YTU4O0EHwScsqyQz_TsI-4" value="&lt;div&gt;&lt;font style=&quot;color: light-dark(rgb(237, 237, 237), rgb(255, 255, 255));&quot;&gt;Webapp&lt;/font&gt;&lt;/div&gt;&lt;div&gt;&lt;font style=&quot;color: light-dark(rgb(237, 237, 237), rgb(255, 255, 255));&quot;&gt;Docker Swarm&lt;/font&gt;&lt;/div&gt;" style="rounded=0;whiteSpace=wrap;html=1;" parent="1" vertex="1">
          <mxGeometry x="155" y="300" width="120" height="60" as="geometry" />
        </mxCell>
        <mxCell id="YTU4O0EHwScsqyQz_TsI-5" value="&lt;div&gt;&lt;font style=&quot;color: light-dark(rgb(237, 237, 237), rgb(255, 255, 255));&quot;&gt;Webapp&lt;/font&gt;&lt;/div&gt;&lt;div&gt;&lt;font style=&quot;color: light-dark(rgb(237, 237, 237), rgb(255, 255, 255));&quot;&gt;Docker Swarm&lt;/font&gt;&lt;/div&gt;" style="rounded=0;whiteSpace=wrap;html=1;" parent="1" vertex="1">
          <mxGeometry x="285" y="300" width="120" height="60" as="geometry" />
        </mxCell>
        <mxCell id="YTU4O0EHwScsqyQz_TsI-6" value="&lt;div&gt;&lt;font style=&quot;color: light-dark(rgb(237, 237, 237), rgb(255, 255, 255));&quot;&gt;Webapp&lt;/font&gt;&lt;/div&gt;&lt;div&gt;&lt;font style=&quot;color: light-dark(rgb(237, 237, 237), rgb(255, 255, 255));&quot;&gt;Docker Swarm&lt;/font&gt;&lt;/div&gt;" style="rounded=0;whiteSpace=wrap;html=1;" parent="1" vertex="1">
          <mxGeometry x="460" y="300" width="120" height="60" as="geometry" />
        </mxCell>
        <mxCell id="YTU4O0EHwScsqyQz_TsI-7" value="-------" style="text;html=1;align=center;verticalAlign=middle;resizable=0;points=[];autosize=1;strokeColor=none;fillColor=none;" parent="1" vertex="1">
          <mxGeometry x="410" y="315" width="50" height="30" as="geometry" />
        </mxCell>
        <mxCell id="YTU4O0EHwScsqyQz_TsI-8" value="Database Webapp(s)&lt;div&gt;Docker Swarm&lt;/div&gt;" style="rounded=0;whiteSpace=wrap;html=1;" parent="1" vertex="1">
          <mxGeometry x="570" y="400" width="120" height="60" as="geometry" />
        </mxCell>
        <mxCell id="YTU4O0EHwScsqyQz_TsI-9" value="&lt;span style=&quot;color: rgb(0, 0, 0); font-family: Helvetica; font-size: 12px; font-style: normal; font-variant-ligatures: normal; font-variant-caps: normal; font-weight: 400; letter-spacing: normal; orphans: 2; text-align: center; text-indent: 0px; text-transform: none; widows: 2; word-spacing: 0px; -webkit-text-stroke-width: 0px; white-space: normal; background-color: rgb(251, 251, 251); text-decoration-thickness: initial; text-decoration-style: initial; text-decoration-color: initial; display: inline !important; float: none;&quot;&gt;Proxmox node&lt;/span&gt;" style="rounded=0;whiteSpace=wrap;html=1;" parent="1" vertex="1">
          <mxGeometry x="199" y="630" width="120" height="60" as="geometry" />
        </mxCell>
        <mxCell id="YTU4O0EHwScsqyQz_TsI-10" value="Proxmox node" style="rounded=0;whiteSpace=wrap;html=1;" parent="1" vertex="1">
          <mxGeometry x="329" y="630" width="120" height="60" as="geometry" />
        </mxCell>
        <mxCell id="YTU4O0EHwScsqyQz_TsI-11" value="--------" style="text;html=1;align=center;verticalAlign=middle;resizable=0;points=[];autosize=1;strokeColor=none;fillColor=none;" parent="1" vertex="1">
          <mxGeometry x="464" y="645" width="60" height="30" as="geometry" />
        </mxCell>
        <mxCell id="YTU4O0EHwScsqyQz_TsI-12" value="Proxmox node" style="rounded=0;whiteSpace=wrap;html=1;" parent="1" vertex="1">
          <mxGeometry x="519" y="630" width="120" height="60" as="geometry" />
        </mxCell>
        <mxCell id="YTU4O0EHwScsqyQz_TsI-13" value="LXC" style="rounded=0;whiteSpace=wrap;html=1;" parent="1" vertex="1">
          <mxGeometry x="329" y="690" width="30" height="20" as="geometry" />
        </mxCell>
        <mxCell id="YTU4O0EHwScsqyQz_TsI-14" value="LXC" style="rounded=0;whiteSpace=wrap;html=1;" parent="1" vertex="1">
          <mxGeometry x="359" y="690" width="30" height="20" as="geometry" />
        </mxCell>
        <mxCell id="YTU4O0EHwScsqyQz_TsI-15" value="VM" style="rounded=0;whiteSpace=wrap;html=1;" parent="1" vertex="1">
          <mxGeometry x="389" y="690" width="30" height="20" as="geometry" />
        </mxCell>
        <mxCell id="YTU4O0EHwScsqyQz_TsI-16" value="LXC" style="rounded=0;whiteSpace=wrap;html=1;" parent="1" vertex="1">
          <mxGeometry x="419" y="690" width="30" height="20" as="geometry" />
        </mxCell>
        <mxCell id="YTU4O0EHwScsqyQz_TsI-17" value="VM" style="rounded=0;whiteSpace=wrap;html=1;" parent="1" vertex="1">
          <mxGeometry x="329" y="710" width="30" height="20" as="geometry" />
        </mxCell>
        <mxCell id="YTU4O0EHwScsqyQz_TsI-18" value="VM" style="rounded=0;whiteSpace=wrap;html=1;" parent="1" vertex="1">
          <mxGeometry x="389" y="710" width="30" height="20" as="geometry" />
        </mxCell>
        <mxCell id="YTU4O0EHwScsqyQz_TsI-19" value="VM" style="rounded=0;whiteSpace=wrap;html=1;" parent="1" vertex="1">
          <mxGeometry x="199" y="690" width="30" height="20" as="geometry" />
        </mxCell>
        <mxCell id="YTU4O0EHwScsqyQz_TsI-20" value="LXC" style="rounded=0;whiteSpace=wrap;html=1;" parent="1" vertex="1">
          <mxGeometry x="229" y="690" width="30" height="20" as="geometry" />
        </mxCell>
        <mxCell id="YTU4O0EHwScsqyQz_TsI-21" value="VM" style="rounded=0;whiteSpace=wrap;html=1;" parent="1" vertex="1">
          <mxGeometry x="259" y="690" width="30" height="20" as="geometry" />
        </mxCell>
        <mxCell id="YTU4O0EHwScsqyQz_TsI-22" value="VM" style="rounded=0;whiteSpace=wrap;html=1;" parent="1" vertex="1">
          <mxGeometry x="289" y="690" width="30" height="20" as="geometry" />
        </mxCell>
        <mxCell id="YTU4O0EHwScsqyQz_TsI-23" value="VM" style="rounded=0;whiteSpace=wrap;html=1;" parent="1" vertex="1">
          <mxGeometry x="199" y="710" width="30" height="20" as="geometry" />
        </mxCell>
        <mxCell id="YTU4O0EHwScsqyQz_TsI-24" value="VM" style="rounded=0;whiteSpace=wrap;html=1;" parent="1" vertex="1">
          <mxGeometry x="259" y="710" width="30" height="20" as="geometry" />
        </mxCell>
        <mxCell id="YTU4O0EHwScsqyQz_TsI-25" value="VM" style="rounded=0;whiteSpace=wrap;html=1;" parent="1" vertex="1">
          <mxGeometry x="519" y="690" width="30" height="20" as="geometry" />
        </mxCell>
        <mxCell id="YTU4O0EHwScsqyQz_TsI-26" value="VM" style="rounded=0;whiteSpace=wrap;html=1;" parent="1" vertex="1">
          <mxGeometry x="549" y="690" width="30" height="20" as="geometry" />
        </mxCell>
        <mxCell id="YTU4O0EHwScsqyQz_TsI-27" value="LXC" style="rounded=0;whiteSpace=wrap;html=1;" parent="1" vertex="1">
          <mxGeometry x="579" y="690" width="30" height="20" as="geometry" />
        </mxCell>
        <mxCell id="YTU4O0EHwScsqyQz_TsI-28" value="VM" style="rounded=0;whiteSpace=wrap;html=1;" parent="1" vertex="1">
          <mxGeometry x="609" y="690" width="30" height="20" as="geometry" />
        </mxCell>
        <mxCell id="YTU4O0EHwScsqyQz_TsI-29" value="VM" style="rounded=0;whiteSpace=wrap;html=1;" parent="1" vertex="1">
          <mxGeometry x="519" y="710" width="30" height="20" as="geometry" />
        </mxCell>
        <mxCell id="YTU4O0EHwScsqyQz_TsI-30" value="VM" style="rounded=0;whiteSpace=wrap;html=1;" parent="1" vertex="1">
          <mxGeometry x="579" y="710" width="30" height="20" as="geometry" />
        </mxCell>
        <mxCell id="YTU4O0EHwScsqyQz_TsI-31" value="Proxmox API" style="rounded=0;whiteSpace=wrap;html=1;" parent="1" vertex="1">
          <mxGeometry x="454" y="570" width="80" height="30" as="geometry" />
        </mxCell>
        <mxCell id="YTU4O0EHwScsqyQz_TsI-33" value="" style="endArrow=none;html=1;rounded=0;entryX=0.533;entryY=0.977;entryDx=0;entryDy=0;entryPerimeter=0;exitX=0.5;exitY=0;exitDx=0;exitDy=0;fillColor=#dae8fc;strokeColor=#6c8ebf;strokeWidth=3;" parent="1" source="YTU4O0EHwScsqyQz_TsI-4" target="YTU4O0EHwScsqyQz_TsI-2" edge="1">
          <mxGeometry width="50" height="50" relative="1" as="geometry">
            <mxPoint x="245" y="300" as="sourcePoint" />
            <mxPoint x="295" y="250" as="targetPoint" />
          </mxGeometry>
        </mxCell>
        <mxCell id="YTU4O0EHwScsqyQz_TsI-34" value="" style="endArrow=none;html=1;rounded=0;entryX=0.5;entryY=1;entryDx=0;entryDy=0;exitX=0.5;exitY=0;exitDx=0;exitDy=0;fillColor=#dae8fc;strokeColor=#6c8ebf;strokeWidth=3;" parent="1" target="YTU4O0EHwScsqyQz_TsI-2" edge="1">
          <mxGeometry width="50" height="50" relative="1" as="geometry">
            <mxPoint x="309" y="300" as="sourcePoint" />
            <mxPoint x="433" y="259" as="targetPoint" />
          </mxGeometry>
        </mxCell>
        <mxCell id="YTU4O0EHwScsqyQz_TsI-35" value="" style="endArrow=none;html=1;rounded=0;exitX=0.5;exitY=0;exitDx=0;exitDy=0;entryX=0.5;entryY=1;entryDx=0;entryDy=0;fillColor=#dae8fc;strokeColor=#6c8ebf;strokeWidth=3;" parent="1" target="YTU4O0EHwScsqyQz_TsI-2" edge="1">
          <mxGeometry width="50" height="50" relative="1" as="geometry">
            <mxPoint x="484" y="300" as="sourcePoint" />
            <mxPoint x="449" y="290" as="targetPoint" />
          </mxGeometry>
        </mxCell>
        <mxCell id="YTU4O0EHwScsqyQz_TsI-36" value="" style="endArrow=none;html=1;rounded=0;entryX=0.5;entryY=1;entryDx=0;entryDy=0;exitX=0.25;exitY=0;exitDx=0;exitDy=0;fillColor=#f8cecc;strokeColor=#b85450;strokeWidth=3;" parent="1" source="mfLmD8ytuKlTda2Trryr-18" target="YTU4O0EHwScsqyQz_TsI-6" edge="1">
          <mxGeometry width="50" height="50" relative="1" as="geometry">
            <mxPoint x="285" y="420" as="sourcePoint" />
            <mxPoint x="395" y="370" as="targetPoint" />
          </mxGeometry>
        </mxCell>
        <mxCell id="YTU4O0EHwScsqyQz_TsI-37" value="" style="endArrow=none;html=1;rounded=0;entryX=0.5;entryY=1;entryDx=0;entryDy=0;exitX=0.25;exitY=0;exitDx=0;exitDy=0;fillColor=#f8cecc;strokeColor=#b85450;strokeWidth=3;" parent="1" source="mfLmD8ytuKlTda2Trryr-18" target="YTU4O0EHwScsqyQz_TsI-5" edge="1">
          <mxGeometry width="50" height="50" relative="1" as="geometry">
            <mxPoint x="272.5" y="430" as="sourcePoint" />
            <mxPoint x="417.5" y="370" as="targetPoint" />
          </mxGeometry>
        </mxCell>
        <mxCell id="YTU4O0EHwScsqyQz_TsI-38" value="" style="endArrow=none;html=1;rounded=0;entryX=0.5;entryY=1;entryDx=0;entryDy=0;exitX=0.25;exitY=0;exitDx=0;exitDy=0;fillColor=#f8cecc;strokeColor=#b85450;strokeWidth=3;" parent="1" source="mfLmD8ytuKlTda2Trryr-18" target="YTU4O0EHwScsqyQz_TsI-4" edge="1">
          <mxGeometry width="50" height="50" relative="1" as="geometry">
            <mxPoint x="470" y="430" as="sourcePoint" />
            <mxPoint x="355" y="370" as="targetPoint" />
          </mxGeometry>
        </mxCell>
        <mxCell id="YTU4O0EHwScsqyQz_TsI-39" value="" style="endArrow=none;html=1;rounded=0;entryX=0.75;entryY=1;entryDx=0;entryDy=0;exitX=0.5;exitY=0;exitDx=0;exitDy=0;fillColor=#d5e8d4;strokeColor=#82b366;strokeWidth=3;" parent="1" source="mfLmD8ytuKlTda2Trryr-18" target="YTU4O0EHwScsqyQz_TsI-6" edge="1">
          <mxGeometry width="50" height="50" relative="1" as="geometry">
            <mxPoint x="470" y="430" as="sourcePoint" />
            <mxPoint x="615" y="370" as="targetPoint" />
          </mxGeometry>
        </mxCell>
        <mxCell id="YTU4O0EHwScsqyQz_TsI-40" value="" style="endArrow=none;html=1;rounded=0;entryX=0.75;entryY=1;entryDx=0;entryDy=0;exitX=0.5;exitY=0;exitDx=0;exitDy=0;fillColor=#d5e8d4;strokeColor=#82b366;strokeWidth=3;" parent="1" source="mfLmD8ytuKlTda2Trryr-18" target="YTU4O0EHwScsqyQz_TsI-5" edge="1">
          <mxGeometry width="50" height="50" relative="1" as="geometry">
            <mxPoint x="735" y="430" as="sourcePoint" />
            <mxPoint x="645" y="370" as="targetPoint" />
          </mxGeometry>
        </mxCell>
        <mxCell id="YTU4O0EHwScsqyQz_TsI-41" value="" style="endArrow=none;html=1;rounded=0;entryX=0.75;entryY=1;entryDx=0;entryDy=0;exitX=0.563;exitY=0.036;exitDx=0;exitDy=0;fillColor=#d5e8d4;strokeColor=#82b366;strokeWidth=3;exitPerimeter=0;" parent="1" source="mfLmD8ytuKlTda2Trryr-18" target="YTU4O0EHwScsqyQz_TsI-4" edge="1">
          <mxGeometry width="50" height="50" relative="1" as="geometry">
            <mxPoint x="735" y="430" as="sourcePoint" />
            <mxPoint x="385" y="370" as="targetPoint" />
          </mxGeometry>
        </mxCell>
        <mxCell id="YTU4O0EHwScsqyQz_TsI-42" value="" style="endArrow=none;html=1;rounded=0;entryX=0.5;entryY=0;entryDx=0;entryDy=0;exitX=0.5;exitY=1;exitDx=0;exitDy=0;fillColor=#f8cecc;strokeColor=#b85450;strokeWidth=3;" parent="1" source="YTU4O0EHwScsqyQz_TsI-31" target="YTU4O0EHwScsqyQz_TsI-9" edge="1">
          <mxGeometry width="50" height="50" relative="1" as="geometry">
            <mxPoint x="524" y="640" as="sourcePoint" />
            <mxPoint x="279" y="580" as="targetPoint" />
          </mxGeometry>
        </mxCell>
        <mxCell id="YTU4O0EHwScsqyQz_TsI-43" value="" style="endArrow=none;html=1;rounded=0;entryX=0.5;entryY=0;entryDx=0;entryDy=0;fillColor=#f8cecc;strokeColor=#b85450;strokeWidth=3;exitX=0.5;exitY=1;exitDx=0;exitDy=0;" parent="1" source="YTU4O0EHwScsqyQz_TsI-31" target="YTU4O0EHwScsqyQz_TsI-10" edge="1">
          <mxGeometry width="50" height="50" relative="1" as="geometry">
            <mxPoint x="509" y="590" as="sourcePoint" />
            <mxPoint x="409" y="580" as="targetPoint" />
          </mxGeometry>
        </mxCell>
        <mxCell id="YTU4O0EHwScsqyQz_TsI-44" value="" style="endArrow=none;html=1;rounded=0;entryX=0.5;entryY=0;entryDx=0;entryDy=0;fillColor=#f8cecc;strokeColor=#b85450;strokeWidth=3;exitX=0.5;exitY=1;exitDx=0;exitDy=0;" parent="1" source="YTU4O0EHwScsqyQz_TsI-31" target="YTU4O0EHwScsqyQz_TsI-12" edge="1">
          <mxGeometry width="50" height="50" relative="1" as="geometry">
            <mxPoint x="504" y="580" as="sourcePoint" />
            <mxPoint x="669" y="580" as="targetPoint" />
          </mxGeometry>
        </mxCell>
        <mxCell id="mfLmD8ytuKlTda2Trryr-2" value="OPNsense&lt;div&gt;Firewall 1&lt;/div&gt;" style="rounded=0;whiteSpace=wrap;html=1;" parent="1" vertex="1">
          <mxGeometry x="297" y="110" width="120" height="60" as="geometry" />
        </mxCell>
        <mxCell id="mfLmD8ytuKlTda2Trryr-3" value="OPNsense&lt;div&gt;Firewall 2&lt;/div&gt;" style="rounded=0;whiteSpace=wrap;html=1;" parent="1" vertex="1">
          <mxGeometry x="432" y="110" width="120" height="60" as="geometry" />
        </mxCell>
        <mxCell id="mfLmD8ytuKlTda2Trryr-4" value="" style="endArrow=none;html=1;rounded=0;entryX=0.55;entryY=0.95;entryDx=0;entryDy=0;entryPerimeter=0;exitX=0.487;exitY=0.012;exitDx=0;exitDy=0;exitPerimeter=0;strokeWidth=2;" parent="1" source="mfLmD8ytuKlTda2Trryr-2" target="YTU4O0EHwScsqyQz_TsI-1" edge="1">
          <mxGeometry width="50" height="50" relative="1" as="geometry">
            <mxPoint x="419" y="130" as="sourcePoint" />
            <mxPoint x="469" y="80" as="targetPoint" />
          </mxGeometry>
        </mxCell>
        <mxCell id="mfLmD8ytuKlTda2Trryr-5" value="" style="endArrow=none;html=1;rounded=0;entryX=0.55;entryY=0.95;entryDx=0;entryDy=0;entryPerimeter=0;exitX=0.5;exitY=0;exitDx=0;exitDy=0;strokeWidth=2;" parent="1" source="mfLmD8ytuKlTda2Trryr-3" target="YTU4O0EHwScsqyQz_TsI-1" edge="1">
          <mxGeometry width="50" height="50" relative="1" as="geometry">
            <mxPoint x="365" y="121" as="sourcePoint" />
            <mxPoint x="420" y="91" as="targetPoint" />
          </mxGeometry>
        </mxCell>
        <mxCell id="mfLmD8ytuKlTda2Trryr-6" value="Proxmox Webbapp" style="rounded=0;whiteSpace=wrap;html=1;" parent="1" vertex="1">
          <mxGeometry x="432" y="485" width="80" height="30" as="geometry" />
        </mxCell>
        <mxCell id="mfLmD8ytuKlTda2Trryr-8" value="" style="endArrow=none;html=1;rounded=0;entryX=0.5;entryY=0;entryDx=0;entryDy=0;exitX=0.5;exitY=1;exitDx=0;exitDy=0;fillColor=#f8cecc;strokeColor=#b85450;strokeWidth=3;" parent="1" source="mfLmD8ytuKlTda2Trryr-6" target="YTU4O0EHwScsqyQz_TsI-31" edge="1">
          <mxGeometry width="50" height="50" relative="1" as="geometry">
            <mxPoint x="485" y="460" as="sourcePoint" />
            <mxPoint x="355" y="370" as="targetPoint" />
          </mxGeometry>
        </mxCell>
        <mxCell id="mfLmD8ytuKlTda2Trryr-10" value="Webapp VLAN" style="text;html=1;align=center;verticalAlign=middle;whiteSpace=wrap;rounded=0;" parent="1" vertex="1">
          <mxGeometry x="145" y="200" width="90" height="12.5" as="geometry" />
        </mxCell>
        <mxCell id="mfLmD8ytuKlTda2Trryr-11" value="Proxmox VLAN" style="text;html=1;align=center;verticalAlign=middle;whiteSpace=wrap;rounded=0;" parent="1" vertex="1">
          <mxGeometry x="189" y="614" width="90" height="12.5" as="geometry" />
        </mxCell>
        <mxCell id="mfLmD8ytuKlTda2Trryr-12" value="PostgreSQL&lt;div&gt;Database&lt;/div&gt;&lt;div&gt;LXC&lt;/div&gt;" style="rounded=0;whiteSpace=wrap;html=1;" parent="1" vertex="1">
          <mxGeometry x="570" y="470" width="120" height="60" as="geometry" />
        </mxCell>
        <mxCell id="mfLmD8ytuKlTda2Trryr-13" value="" style="endArrow=none;html=1;rounded=0;entryX=0.5;entryY=1;entryDx=0;entryDy=0;fillColor=#d5e8d4;strokeColor=#82b366;strokeWidth=3;" parent="1" source="mfLmD8ytuKlTda2Trryr-12" target="YTU4O0EHwScsqyQz_TsI-8" edge="1">
          <mxGeometry width="50" height="50" relative="1" as="geometry">
            <mxPoint x="735" y="430" as="sourcePoint" />
            <mxPoint x="645" y="370" as="targetPoint" />
          </mxGeometry>
        </mxCell>
        <mxCell id="mfLmD8ytuKlTda2Trryr-14" value="" style="endArrow=none;html=1;rounded=0;entryX=0.5;entryY=1;entryDx=0;entryDy=0;exitX=0.5;exitY=0;exitDx=0;exitDy=0;strokeWidth=2;" parent="1" source="YTU4O0EHwScsqyQz_TsI-2" target="mfLmD8ytuKlTda2Trryr-3" edge="1">
          <mxGeometry width="50" height="50" relative="1" as="geometry">
            <mxPoint x="502" y="120" as="sourcePoint" />
            <mxPoint x="440" y="96" as="targetPoint" />
          </mxGeometry>
        </mxCell>
        <mxCell id="mfLmD8ytuKlTda2Trryr-15" value="" style="endArrow=none;html=1;rounded=0;entryX=0.5;entryY=0;entryDx=0;entryDy=0;exitX=0.5;exitY=1;exitDx=0;exitDy=0;strokeWidth=2;" parent="1" source="mfLmD8ytuKlTda2Trryr-2" target="YTU4O0EHwScsqyQz_TsI-2" edge="1">
          <mxGeometry width="50" height="50" relative="1" as="geometry">
            <mxPoint x="429" y="200" as="sourcePoint" />
            <mxPoint x="502" y="180" as="targetPoint" />
          </mxGeometry>
        </mxCell>
        <mxCell id="mfLmD8ytuKlTda2Trryr-17" value="Infrastructure, Student PVE, Firewall, or CTF challenge VLANs" style="text;html=1;align=center;verticalAlign=middle;whiteSpace=wrap;rounded=0;" parent="1" vertex="1">
          <mxGeometry x="189" y="748" width="391" height="21" as="geometry" />
        </mxCell>
        <mxCell id="mfLmD8ytuKlTda2Trryr-18" value="Nginx&lt;div&gt;LXC&lt;/div&gt;" style="rounded=0;whiteSpace=wrap;html=1;" parent="1" vertex="1">
          <mxGeometry x="400" y="400" width="120" height="60" as="geometry" />
        </mxCell>
        <mxCell id="mfLmD8ytuKlTda2Trryr-19" value="" style="endArrow=none;html=1;rounded=0;entryX=0;entryY=0.5;entryDx=0;entryDy=0;exitX=1;exitY=0.5;exitDx=0;exitDy=0;fillColor=#d5e8d4;strokeColor=#82b366;strokeWidth=3;" parent="1" source="mfLmD8ytuKlTda2Trryr-18" target="YTU4O0EHwScsqyQz_TsI-8" edge="1">
          <mxGeometry width="50" height="50" relative="1" as="geometry">
            <mxPoint x="475" y="400" as="sourcePoint" />
            <mxPoint x="645" y="370" as="targetPoint" />
          </mxGeometry>
        </mxCell>
        <mxCell id="mfLmD8ytuKlTda2Trryr-20" value="Examples of virtual machines:&lt;div&gt;&lt;ul&gt;&lt;li&gt;OPNsense Firewalls&lt;/li&gt;&lt;li&gt;Student Virtual Machines&lt;/li&gt;&lt;li&gt;Docker Swarm Managers&lt;/li&gt;&lt;li&gt;Docker Swarm Agents&lt;/li&gt;&lt;li&gt;Game of Active Directory&lt;/li&gt;&lt;li&gt;Student Linux VMs with GPU&lt;/li&gt;&lt;/ul&gt;&lt;div&gt;&lt;span style=&quot;background-color: transparent; color: light-dark(rgb(0, 0, 0), rgb(255, 255, 255));&quot;&gt;Examples of&lt;/span&gt;&lt;span style=&quot;background-color: transparent; color: light-dark(rgb(0, 0, 0), rgb(255, 255, 255));&quot;&gt;&amp;nbsp;&lt;/span&gt;LXCs:&lt;br&gt;&lt;ul&gt;&lt;li&gt;PostgreSQL database&lt;/li&gt;&lt;li&gt;CTF challengesfor students to test their skills&lt;/li&gt;&lt;ul&gt;&lt;li&gt;These will reset every 24 hours&lt;/li&gt;&lt;/ul&gt;&lt;li&gt;APT Cache server&lt;/li&gt;&lt;li&gt;ISO image hosting Nginx/Apache webserver&lt;/li&gt;&lt;li&gt;PiHole DNS(s)&lt;/li&gt;&lt;li&gt;Portainer&lt;/li&gt;&lt;/ul&gt;&lt;/div&gt;&lt;/div&gt;" style="rounded=0;whiteSpace=wrap;html=1;align=left;fillStyle=auto;gradientColor=none;" parent="1" vertex="1">
          <mxGeometry x="215" y="800" width="420" height="270" as="geometry" />
        </mxCell>
        <mxCell id="mfLmD8ytuKlTda2Trryr-22" value="" style="endArrow=none;html=1;rounded=0;entryX=0;entryY=0.5;entryDx=0;entryDy=0;exitX=1;exitY=0.5;exitDx=0;exitDy=0;strokeWidth=2;" parent="1" source="mfLmD8ytuKlTda2Trryr-2" target="mfLmD8ytuKlTda2Trryr-3" edge="1">
          <mxGeometry width="50" height="50" relative="1" as="geometry">
            <mxPoint x="365" y="121" as="sourcePoint" />
            <mxPoint x="440" y="96" as="targetPoint" />
          </mxGeometry>
        </mxCell>
        <mxCell id="mfLmD8ytuKlTda2Trryr-24" value="" style="endArrow=none;html=1;rounded=0;entryX=0.5;entryY=1;entryDx=0;entryDy=0;exitX=0.5;exitY=0;exitDx=0;exitDy=0;fillColor=#f8cecc;strokeColor=#b85450;strokeWidth=3;" parent="1" source="mfLmD8ytuKlTda2Trryr-6" target="mfLmD8ytuKlTda2Trryr-18" edge="1">
          <mxGeometry width="50" height="50" relative="1" as="geometry">
            <mxPoint x="475" y="550" as="sourcePoint" />
            <mxPoint x="475" y="580" as="targetPoint" />
          </mxGeometry>
        </mxCell>
      </root>
    </mxGraphModel>
  </diagram>
</mxfile>
